<mxfile host="app.diagrams.net" modified="2023-06-20T09:50:21.173Z" agent="Mozilla/5.0 (Macintosh; Intel Mac OS X 10_15_7) AppleWebKit/537.36 (KHTML, like Gecko) Chrome/114.0.0.0 Safari/537.36" etag="QYcfSoG9VljARUw-X68C" version="21.5.0" type="github">
  <diagram name="Page-1" id="EUDKRMNWUSvDidSoHSQY">
    <mxGraphModel dx="1801" dy="1110" grid="1" gridSize="10" guides="1" tooltips="1" connect="1" arrows="1" fold="1" page="1" pageScale="1" pageWidth="827" pageHeight="1169" math="0" shadow="0">
      <root>
        <mxCell id="0" />
        <mxCell id="1" parent="0" />
        <mxCell id="W2C_w1azEI2Y5IgaoJKl-1" value="" style="sketch=0;pointerEvents=1;shadow=1;dashed=0;html=1;strokeColor=none;fillColor=#505050;labelPosition=center;verticalLabelPosition=bottom;outlineConnect=0;verticalAlign=top;align=center;shape=mxgraph.office.clouds.cloud_sharepoint;" vertex="1" parent="1">
          <mxGeometry x="190" y="450" width="105" height="60" as="geometry" />
        </mxCell>
        <mxCell id="W2C_w1azEI2Y5IgaoJKl-2" value="" style="outlineConnect=0;verticalLabelPosition=bottom;verticalAlign=top;align=center;html=1;fontSize=12;fontStyle=0;aspect=fixed;shape=mxgraph.aws4.resourceIcon;resIcon=mxgraph.aws4.users;strokeWidth=16;perimeterSpacing=3;shadow=1;" vertex="1" parent="1">
          <mxGeometry x="202.25" y="240" width="80.5" height="80.5" as="geometry" />
        </mxCell>
        <mxCell id="W2C_w1azEI2Y5IgaoJKl-7" value="" style="sketch=0;points=[[0,0,0],[0.25,0,0],[0.5,0,0],[0.75,0,0],[1,0,0],[0,1,0],[0.25,1,0],[0.5,1,0],[0.75,1,0],[1,1,0],[0,0.25,0],[0,0.5,0],[0,0.75,0],[1,0.25,0],[1,0.5,0],[1,0.75,0]];outlineConnect=0;fontColor=#232F3E;gradientColor=#FF4F8B;gradientDirection=north;fillColor=#BC1356;strokeColor=#ffffff;dashed=0;verticalLabelPosition=bottom;verticalAlign=top;align=center;html=1;fontSize=12;fontStyle=0;aspect=fixed;shape=mxgraph.aws4.resourceIcon;resIcon=mxgraph.aws4.sns;shadow=1;" vertex="1" parent="1">
          <mxGeometry x="670" y="230" width="78" height="78" as="geometry" />
        </mxCell>
        <mxCell id="W2C_w1azEI2Y5IgaoJKl-8" value="" style="sketch=0;points=[[0,0,0],[0.25,0,0],[0.5,0,0],[0.75,0,0],[1,0,0],[0,1,0],[0.25,1,0],[0.5,1,0],[0.75,1,0],[1,1,0],[0,0.25,0],[0,0.5,0],[0,0.75,0],[1,0.25,0],[1,0.5,0],[1,0.75,0]];outlineConnect=0;fontColor=#232F3E;gradientColor=#60A337;gradientDirection=north;fillColor=#277116;strokeColor=#ffffff;dashed=0;verticalLabelPosition=bottom;verticalAlign=top;align=center;html=1;fontSize=12;fontStyle=0;aspect=fixed;shape=mxgraph.aws4.resourceIcon;resIcon=mxgraph.aws4.s3;shadow=1;" vertex="1" parent="1">
          <mxGeometry x="891" y="362" width="78" height="78" as="geometry" />
        </mxCell>
        <mxCell id="W2C_w1azEI2Y5IgaoJKl-9" value="" style="sketch=0;points=[[0,0,0],[0.25,0,0],[0.5,0,0],[0.75,0,0],[1,0,0],[0,1,0],[0.25,1,0],[0.5,1,0],[0.75,1,0],[1,1,0],[0,0.25,0],[0,0.5,0],[0,0.75,0],[1,0.25,0],[1,0.5,0],[1,0.75,0]];outlineConnect=0;fontColor=#232F3E;gradientColor=#60A337;gradientDirection=north;fillColor=#277116;strokeColor=#ffffff;dashed=0;verticalLabelPosition=bottom;verticalAlign=top;align=center;html=1;fontSize=12;fontStyle=0;aspect=fixed;shape=mxgraph.aws4.resourceIcon;resIcon=mxgraph.aws4.s3;shadow=1;" vertex="1" parent="1">
          <mxGeometry x="891" y="520" width="78" height="78" as="geometry" />
        </mxCell>
        <mxCell id="W2C_w1azEI2Y5IgaoJKl-12" value="" style="edgeStyle=orthogonalEdgeStyle;html=1;endArrow=block;elbow=vertical;startArrow=none;endFill=1;strokeColor=#545B64;rounded=0;" edge="1" parent="1" source="W2C_w1azEI2Y5IgaoJKl-2" target="W2C_w1azEI2Y5IgaoJKl-1">
          <mxGeometry width="100" relative="1" as="geometry">
            <mxPoint x="501" y="190" as="sourcePoint" />
            <mxPoint x="505" y="240" as="targetPoint" />
          </mxGeometry>
        </mxCell>
        <mxCell id="W2C_w1azEI2Y5IgaoJKl-15" value="" style="edgeStyle=orthogonalEdgeStyle;html=1;endArrow=block;elbow=vertical;startArrow=none;endFill=1;strokeColor=#545B64;rounded=0;exitX=1;exitY=0.5;exitDx=0;exitDy=0;exitPerimeter=0;entryX=0;entryY=0.5;entryDx=0;entryDy=0;entryPerimeter=0;" edge="1" parent="1" source="W2C_w1azEI2Y5IgaoJKl-30" target="W2C_w1azEI2Y5IgaoJKl-8">
          <mxGeometry width="100" relative="1" as="geometry">
            <mxPoint x="749" y="476" as="sourcePoint" />
            <mxPoint x="902" y="480.5" as="targetPoint" />
          </mxGeometry>
        </mxCell>
        <mxCell id="W2C_w1azEI2Y5IgaoJKl-16" value="" style="edgeStyle=orthogonalEdgeStyle;html=1;endArrow=block;elbow=vertical;startArrow=none;endFill=1;strokeColor=#545B64;rounded=0;exitX=1;exitY=0.5;exitDx=0;exitDy=0;exitPerimeter=0;entryX=0;entryY=0.5;entryDx=0;entryDy=0;entryPerimeter=0;" edge="1" parent="1" source="W2C_w1azEI2Y5IgaoJKl-30" target="W2C_w1azEI2Y5IgaoJKl-9">
          <mxGeometry width="100" relative="1" as="geometry">
            <mxPoint x="749" y="476" as="sourcePoint" />
            <mxPoint x="901" y="411" as="targetPoint" />
          </mxGeometry>
        </mxCell>
        <mxCell id="W2C_w1azEI2Y5IgaoJKl-20" value="" style="edgeStyle=orthogonalEdgeStyle;html=1;endArrow=block;elbow=vertical;startArrow=none;endFill=1;strokeColor=#545B64;rounded=0;exitX=1;exitY=0.5;exitDx=0;exitDy=0;exitPerimeter=0;entryX=0;entryY=0.5;entryDx=0;entryDy=0;entryPerimeter=0;" edge="1" parent="1" source="W2C_w1azEI2Y5IgaoJKl-8" target="W2C_w1azEI2Y5IgaoJKl-10">
          <mxGeometry width="100" relative="1" as="geometry">
            <mxPoint x="980" y="558.5" as="sourcePoint" />
            <mxPoint x="1111" y="560" as="targetPoint" />
          </mxGeometry>
        </mxCell>
        <mxCell id="W2C_w1azEI2Y5IgaoJKl-26" value="Users" style="text;html=1;strokeColor=none;fillColor=none;align=center;verticalAlign=middle;whiteSpace=wrap;rounded=0;" vertex="1" parent="1">
          <mxGeometry x="212.5" y="210" width="60" height="30" as="geometry" />
        </mxCell>
        <mxCell id="W2C_w1azEI2Y5IgaoJKl-27" value="RISC GDA Sharepoint" style="text;html=1;strokeColor=none;fillColor=none;align=center;verticalAlign=middle;whiteSpace=wrap;rounded=0;" vertex="1" parent="1">
          <mxGeometry x="177.5" y="520" width="130" height="30" as="geometry" />
        </mxCell>
        <mxCell id="W2C_w1azEI2Y5IgaoJKl-29" value="" style="edgeStyle=orthogonalEdgeStyle;html=1;endArrow=block;elbow=vertical;startArrow=none;endFill=1;strokeColor=#545B64;rounded=0;exitX=0.5;exitY=1;exitDx=0;exitDy=0;exitPerimeter=0;" edge="1" parent="1" source="W2C_w1azEI2Y5IgaoJKl-7" target="W2C_w1azEI2Y5IgaoJKl-30">
          <mxGeometry width="100" relative="1" as="geometry">
            <mxPoint x="600" y="450" as="sourcePoint" />
            <mxPoint x="700" y="450" as="targetPoint" />
          </mxGeometry>
        </mxCell>
        <mxCell id="W2C_w1azEI2Y5IgaoJKl-30" value="" style="sketch=0;points=[[0,0,0],[0.25,0,0],[0.5,0,0],[0.75,0,0],[1,0,0],[0,1,0],[0.25,1,0],[0.5,1,0],[0.75,1,0],[1,1,0],[0,0.25,0],[0,0.5,0],[0,0.75,0],[1,0.25,0],[1,0.5,0],[1,0.75,0]];outlineConnect=0;fontColor=#232F3E;gradientColor=#F78E04;gradientDirection=north;fillColor=#D05C17;strokeColor=#ffffff;dashed=0;verticalLabelPosition=bottom;verticalAlign=top;align=center;html=1;fontSize=12;fontStyle=0;aspect=fixed;shape=mxgraph.aws4.resourceIcon;resIcon=mxgraph.aws4.lambda;" vertex="1" parent="1">
          <mxGeometry x="670" y="441" width="78" height="78" as="geometry" />
        </mxCell>
        <mxCell id="W2C_w1azEI2Y5IgaoJKl-35" value="" style="edgeStyle=orthogonalEdgeStyle;html=1;endArrow=block;elbow=vertical;startArrow=none;endFill=1;strokeColor=#545B64;rounded=0;entryX=0;entryY=0.5;entryDx=0;entryDy=0;entryPerimeter=0;" edge="1" parent="1" source="W2C_w1azEI2Y5IgaoJKl-1" target="W2C_w1azEI2Y5IgaoJKl-34">
          <mxGeometry width="100" relative="1" as="geometry">
            <mxPoint x="320" y="480.5" as="sourcePoint" />
            <mxPoint x="420" y="480.5" as="targetPoint" />
          </mxGeometry>
        </mxCell>
        <mxCell id="W2C_w1azEI2Y5IgaoJKl-37" value="" style="edgeStyle=orthogonalEdgeStyle;html=1;endArrow=block;elbow=vertical;startArrow=none;endFill=1;strokeColor=#545B64;rounded=0;entryX=0;entryY=0.5;entryDx=0;entryDy=0;entryPerimeter=0;exitX=1;exitY=0.5;exitDx=0;exitDy=0;exitPerimeter=0;" edge="1" parent="1" source="W2C_w1azEI2Y5IgaoJKl-34" target="W2C_w1azEI2Y5IgaoJKl-30">
          <mxGeometry width="100" relative="1" as="geometry">
            <mxPoint x="500" y="479" as="sourcePoint" />
            <mxPoint x="655" y="478.5" as="targetPoint" />
          </mxGeometry>
        </mxCell>
        <mxCell id="W2C_w1azEI2Y5IgaoJKl-38" value="AWS Cloud" style="points=[[0,0],[0.25,0],[0.5,0],[0.75,0],[1,0],[1,0.25],[1,0.5],[1,0.75],[1,1],[0.75,1],[0.5,1],[0.25,1],[0,1],[0,0.75],[0,0.5],[0,0.25]];outlineConnect=0;gradientColor=none;html=1;whiteSpace=wrap;fontSize=12;fontStyle=0;container=1;pointerEvents=0;collapsible=0;recursiveResize=0;shape=mxgraph.aws4.group;grIcon=mxgraph.aws4.group_aws_cloud_alt;strokeColor=#232F3E;fillColor=none;verticalAlign=top;align=left;spacingLeft=30;fontColor=#232F3E;dashed=0;" vertex="1" parent="1">
          <mxGeometry x="370" y="204" width="1110" height="466" as="geometry" />
        </mxCell>
        <mxCell id="W2C_w1azEI2Y5IgaoJKl-34" value="" style="sketch=0;points=[[0,0,0],[0.25,0,0],[0.5,0,0],[0.75,0,0],[1,0,0],[0,1,0],[0.25,1,0],[0.5,1,0],[0.75,1,0],[1,1,0],[0,0.25,0],[0,0.5,0],[0,0.75,0],[1,0.25,0],[1,0.5,0],[1,0.75,0]];outlineConnect=0;fontColor=#232F3E;gradientColor=#60A337;gradientDirection=north;fillColor=#277116;strokeColor=#ffffff;dashed=0;verticalLabelPosition=bottom;verticalAlign=top;align=center;html=1;fontSize=12;fontStyle=0;aspect=fixed;shape=mxgraph.aws4.resourceIcon;resIcon=mxgraph.aws4.s3;" vertex="1" parent="W2C_w1azEI2Y5IgaoJKl-38">
          <mxGeometry x="100" y="237" width="78" height="78" as="geometry" />
        </mxCell>
        <mxCell id="W2C_w1azEI2Y5IgaoJKl-10" value="" style="sketch=0;points=[[0,0,0],[0.25,0,0],[0.5,0,0],[0.75,0,0],[1,0,0],[0,1,0],[0.25,1,0],[0.5,1,0],[0.75,1,0],[1,1,0],[0,0.25,0],[0,0.5,0],[0,0.75,0],[1,0.25,0],[1,0.5,0],[1,0.75,0]];outlineConnect=0;fontColor=#232F3E;gradientColor=#F78E04;gradientDirection=north;fillColor=#D05C17;strokeColor=#ffffff;dashed=0;verticalLabelPosition=bottom;verticalAlign=top;align=center;html=1;fontSize=12;fontStyle=0;aspect=fixed;shape=mxgraph.aws4.resourceIcon;resIcon=mxgraph.aws4.lambda;shadow=1;" vertex="1" parent="W2C_w1azEI2Y5IgaoJKl-38">
          <mxGeometry x="740" y="158" width="78" height="78" as="geometry" />
        </mxCell>
        <mxCell id="W2C_w1azEI2Y5IgaoJKl-11" value="" style="sketch=0;points=[[0,0,0],[0.25,0,0],[0.5,0,0],[0.75,0,0],[1,0,0],[0,1,0],[0.25,1,0],[0.5,1,0],[0.75,1,0],[1,1,0],[0,0.25,0],[0,0.5,0],[0,0.75,0],[1,0.25,0],[1,0.5,0],[1,0.75,0]];outlineConnect=0;fontColor=#232F3E;gradientColor=#4D72F3;gradientDirection=north;fillColor=#3334B9;strokeColor=#ffffff;dashed=0;verticalLabelPosition=bottom;verticalAlign=top;align=center;html=1;fontSize=12;fontStyle=0;aspect=fixed;shape=mxgraph.aws4.resourceIcon;resIcon=mxgraph.aws4.simple_email_service;shadow=1;" vertex="1" parent="W2C_w1azEI2Y5IgaoJKl-38">
          <mxGeometry x="960" y="158" width="78" height="78" as="geometry" />
        </mxCell>
        <mxCell id="W2C_w1azEI2Y5IgaoJKl-19" value="" style="sketch=0;points=[[0,0,0],[0.25,0,0],[0.5,0,0],[0.75,0,0],[1,0,0],[0,1,0],[0.25,1,0],[0.5,1,0],[0.75,1,0],[1,1,0],[0,0.25,0],[0,0.5,0],[0,0.75,0],[1,0.25,0],[1,0.5,0],[1,0.75,0]];outlineConnect=0;fontColor=#232F3E;gradientColor=#FF4F8B;gradientDirection=north;fillColor=#BC1356;strokeColor=#ffffff;dashed=0;verticalLabelPosition=bottom;verticalAlign=top;align=center;html=1;fontSize=12;fontStyle=0;aspect=fixed;shape=mxgraph.aws4.resourceIcon;resIcon=mxgraph.aws4.sns;shadow=1;" vertex="1" parent="W2C_w1azEI2Y5IgaoJKl-38">
          <mxGeometry x="740" y="26" width="78" height="78" as="geometry" />
        </mxCell>
        <mxCell id="W2C_w1azEI2Y5IgaoJKl-21" value="" style="edgeStyle=orthogonalEdgeStyle;html=1;endArrow=block;elbow=vertical;startArrow=none;endFill=1;strokeColor=#545B64;rounded=0;exitX=1;exitY=0.5;exitDx=0;exitDy=0;exitPerimeter=0;entryX=0;entryY=0.5;entryDx=0;entryDy=0;entryPerimeter=0;" edge="1" parent="W2C_w1azEI2Y5IgaoJKl-38" source="W2C_w1azEI2Y5IgaoJKl-10" target="W2C_w1azEI2Y5IgaoJKl-11">
          <mxGeometry width="100" relative="1" as="geometry">
            <mxPoint x="841" y="196.5" as="sourcePoint" />
            <mxPoint x="941" y="197" as="targetPoint" />
          </mxGeometry>
        </mxCell>
        <mxCell id="W2C_w1azEI2Y5IgaoJKl-31" value="" style="edgeStyle=orthogonalEdgeStyle;html=1;endArrow=block;elbow=vertical;startArrow=none;endFill=1;strokeColor=#545B64;rounded=0;entryX=0.5;entryY=0;entryDx=0;entryDy=0;entryPerimeter=0;exitX=0.5;exitY=1;exitDx=0;exitDy=0;exitPerimeter=0;" edge="1" parent="W2C_w1azEI2Y5IgaoJKl-38" source="W2C_w1azEI2Y5IgaoJKl-19" target="W2C_w1azEI2Y5IgaoJKl-10">
          <mxGeometry width="100" relative="1" as="geometry">
            <mxPoint x="779" y="38" as="sourcePoint" />
            <mxPoint x="778.5" y="148" as="targetPoint" />
          </mxGeometry>
        </mxCell>
        <mxCell id="W2C_w1azEI2Y5IgaoJKl-49" value="" style="edgeStyle=orthogonalEdgeStyle;html=1;endArrow=block;elbow=vertical;startArrow=none;endFill=1;strokeColor=#545B64;rounded=0;exitX=1;exitY=0.5;exitDx=0;exitDy=0;exitPerimeter=0;entryX=0;entryY=0.5;entryDx=0;entryDy=0;entryPerimeter=0;" edge="1" parent="W2C_w1azEI2Y5IgaoJKl-38" source="W2C_w1azEI2Y5IgaoJKl-11">
          <mxGeometry width="100" relative="1" as="geometry">
            <mxPoint x="1050" y="196.5" as="sourcePoint" />
            <mxPoint x="1192" y="196.5" as="targetPoint" />
          </mxGeometry>
        </mxCell>
        <mxCell id="W2C_w1azEI2Y5IgaoJKl-40" value="" style="outlineConnect=0;verticalLabelPosition=bottom;verticalAlign=top;align=center;html=1;fontSize=12;fontStyle=0;aspect=fixed;shape=mxgraph.aws4.resourceIcon;resIcon=mxgraph.aws4.users;strokeWidth=16;perimeterSpacing=3;shadow=1;" vertex="1" parent="1">
          <mxGeometry x="1560" y="362" width="80.5" height="80.5" as="geometry" />
        </mxCell>
        <mxCell id="W2C_w1azEI2Y5IgaoJKl-41" value="Users" style="text;html=1;strokeColor=none;fillColor=none;align=center;verticalAlign=middle;whiteSpace=wrap;rounded=0;" vertex="1" parent="1">
          <mxGeometry x="1570.25" y="332" width="60" height="30" as="geometry" />
        </mxCell>
      </root>
    </mxGraphModel>
  </diagram>
</mxfile>
